# xmcd
#
# Track frame offsets:
#	150
#	23229
#	39184
#	62368
#	81879
#	99656
#	117259
#	134054
#	150553
#	164327
#	186726
#
# Disc length: 2740 seconds
#
# Revision: 0
# Processed by: cddbd v1.5.2PL0 Copyright (c) Steve Scherf et al.
# Submitted via: EZCDAudioConverter 3.0.3.2
#
DISCID=8f0ab20b
DTITLE=Tres fan bal - El sac del temps
DYEAR=1900
DGENRE=
TTITLE0=Mar enllà
TTITLE1=Ball de la cadena
TTITLE2=Xotis del mas Nou
TTITLE3=Jota de les xulles/Jotade Muro
TTITLE4=Nadala
TTITLE5=Cançó de Batre/Fandango
TTITLE6=Polques del tio Lleonard
TTITLE7=Redova/Masurca
TTITLE8=Bolero d'Algemesí
TTITLE9=La Papallona
TTITLE10=Romanç de la Gileta/Diable verd
EXTD=
EXTT0=
EXTT1=
EXTT2=
EXTT3=
EXTT4=
EXTT5=
EXTT6=
EXTT7=
EXTT8=
EXTT9=
EXTT10=
PLAYORDER=
